<?xml version="1.0" encoding="UTF-8" standalone="no"?>
<svg version="1.1" xmlns="http://www.w3.org/2000/svg" xmlns:xlink="http://www.w3.org/1999/xlink" viewBox="0 0 1112 1112" aria-hidden="true">
    <title>DeltaProto</title>
    <rect x="97.836" y="0.93" width="915.819" height="1110.141" style="stroke: rgb(216, 42, 48); paint-order: stroke; fill: rgb(216, 42, 48); stroke-width: 0px;" rx="81.819" ry="81.819"/>
    <rect x="424.184" y="106.923" width="138.535" height="506.722" style="stroke: rgb(0, 0, 0); stroke-width: 0px; fill: rgb(255, 255, 255);"/>
    <rect x="549.238" y="496.96" width="138.535" height="506.722" style="stroke: rgb(0, 0, 0); stroke-width: 0px; fill: rgb(255, 255, 255);"/>
    <ellipse style="stroke: rgb(0, 0, 0); stroke-width: 0px; fill: rgb(255, 255, 255);" cx="283.789" cy="555.93" rx="280.325" ry="277.536"/>
    <ellipse style="stroke: rgb(0, 0, 0); stroke-width: 0px; fill: rgb(255, 255, 255);" cx="827.238" cy="556.465" rx="280.325" ry="277.536"/>
    <path d="M 814 418 C 752.2 424.2 702.5 469.4 690.3 530.7 C 687.9 542.8 687.9 569.1 690.3 581.3 C 701.8 638.9 744.5 681.2 802.5 692.6 C 814.5 695 838.2 695 850.6 692.7 C 879.5 687.4 903 675 924.1 654 C 951.5 626.6 965 594.4 965 556 C 965 527.6 957.2 502 941.2 478.1 C 934.2 467.6 916.3 449.4 905.8 442.2 C 879.3 424.1 844.8 415 814 418 Z" style="fill: rgb(216, 42, 48);" stroke="none"/>
    <path d="M 272.2 418.1 C 227.7 422.4 188.3 447.7 164.9 487 C 155.6 502.7 149 523.7 147 544.2 C 143.1 583.8 158.1 624.8 187 653.8 C 206.6 673.4 230.4 686.2 258.3 692.2 C 272.8 695.2 297.2 695.2 311.7 692.2 C 361.9 681.5 400.6 647.3 416.5 599.7 C 421.5 584.7 423.4 572.9 423.4 556 C 423.4 519.2 410.6 487.3 385.2 460.9 C 360.9 435.5 331.6 421.3 297 418.1 C 284.4 416.9 284.3 416.9 272.2 418.1 Z" style="fill: rgb(216, 42, 48);" stroke="none"/>
</svg>

